<svg width="160" height="66" fill="none" xmlns="http://www.w3.org/2000/svg"><path fill-rule="evenodd" clip-rule="evenodd" d="M113.207 27.161a87.304 87.304 0 0 0-1.115 7.531c-1.059 10.06-.612 18.996.613 22.986.726 2.137 3.457 4.946 6.078 2.023 2.843-3.203 5.967-1.349 2.174 2.416-2.34 2.305-6.689 3.878-11.039 3.428-3.123-.393-5.018-2.415-6.134-5.505-.444.898-.947 1.685-1.56 2.302-2.119 2.193-4.685 3.43-7.974 3.092-6.637-.73-10.538-7.923-8.699-18.153 1.952-10.791 11.319-14.725 16.728-11.857.112-1.349.223-2.699.335-4.104.027-.14.041-.28.055-.421.014-.141.028-.282.055-.422-1.645.362-3.3.68-4.962.956-23.975 3.99-15.722-15.569-9.868-20.683 6.636-5.733 7.36-1.855 5.297-.562-3.68 2.36-5.297 15.905 5.241 15.905 1.729 0 3.346-.112 4.962-.281 3.291-18.322 13.271-27.203 21.356-24.28 8.976 3.26 8.029 17.535-11.543 25.629Zm-10.928 24.393c-.224-3.542-.224-7.532-.167-11.636 0-.26.015-.52.029-.773.014-.238.027-.47.027-.688-3.346-1.518-6.635 3.653-7.473 10.792-.946 8.373 2.788 12.813 4.908 10.791 1.617-1.631 2.453-6.803 2.676-8.486Zm24.086-43.165c-1.784-2.642-8.307.562-12.098 14.332 9.535-4.554 13.326-12.422 12.098-14.332ZM57.062 19.861c2.585 5.297-5.38 8.896-9.031 4.922-1.522-1.695-.823-4.963 2.873-6.742 1.846-.911 4.432-1.736 6.158 1.82Zm-23.249 6.662c3.355 3.65 10.668.345 8.292-4.521-1.583-3.268-3.959-2.508-5.656-1.672-3.391 1.633-4.034 4.638-2.636 6.193Zm120.408 24.224c1.221-.105 2.494-.214 3.715-.373 2.628-.217 2.467-2.867.161-2.652-.645.056-1.29.099-1.943.141-.597.04-1.199.079-1.814.13.054-9.357-6.743-10.57-14.312-8.317-1.28.381-4.979-.316 4.511-3.726l.188-.068c4.673-1.676 7.544-2.705 1.191-8.267-2.096-1.836-21.747 7.077-16.728 16.102 2.925 5.262 8.639 3.427 13.458 1.879 4.585-1.473 8.359-2.685 8.15 2.722-11.805 1.138-23.667 2.921-23.398 9.088.591 13.632 24.364 10.765 26.779-6.599v-.056l.042-.004Zm-3.799.383c-9.124 1.028-17.013 2.436-16.153 5.355 1.716 5.573 13.577 6.818 16.153-5.355Zm-32.744-5.212c-.682-.037-.703-6.038.112-11.688 1.005-6.951 11.935-3.357 9.093-1.906-1.988 1.016-3.297 4.567-4.495 7.817-.594 1.613-1.162 3.152-1.771 4.27-.635 1.161-2.605 1.526-2.939 1.507Zm-101.007 5.9c-2.007 15.007 4.293 16.186 12.212 10.848 2.062-1.404.613-4.216-1.618-2.642-1.784 1.292-1.617-.955.39-17.535 1.171-9.274-5.018-11.465-12.434-6.801-2.732 1.688-5.13 5.509-6.803 10.173.24-2.676.707-5.327 1.395-7.924 1.729-6.633.446-10.172-7.583-7.981C1.171 30.236 0 36.307 0 45.131 0 55.865.837 63.79 1.895 64.575c3.067 2.304 8.308.619 7.974-1.011a50.984 50.984 0 0 1-1.004-4.776c.056-6.689 1.839-13.715 4.684-16.412 2.174-2.079 4.572-1.462 3.122 9.442Zm38.311 8.772c-2.175 3.484-7.806 5.171-13.216 4.552-7.75-.843-12.545-7.756-10.705-18.097 2.008-11.185 18.065-18.322 23.196-10.341 3.735 5.789-2.175 16.017-11.597 19.783l-.502.168c1.951 5.171 6.579 7.476 11.039 2.36 2.119-2.36 3.624-1.348 1.785 1.575Zm-7.416-23.323c1.617 2.585-.334 11.746-6.189 15.905-.167-1.294-.167-2.698-.056-4.159 1.171-10.229 4.517-14.443 6.245-11.746Zm29.559 13.784c2.063-.675 4.369-2.552 5.966-5.059.447-.703.823-1.335 1.339-2.98-.063.2-.039.108.02-.117.109-.409.334-1.262.37-1.624 0-.056.056-.339.112-.449 1.225-6.857-3.011-10.736-8.867-7.813-3.289 1.629-7.359 7.813-9.812 14.501.613-3.598 1.672-7.026 2.843-10.399 2.007-5.957-1.728-8.992-8.14-7.249-1.06.281-3.011 8.093-3.011 16.917 0 10.734.558 16.916 1.617 17.704 3.066 2.36 8.53.618 7.973-.956-.216-.598-.38-1.199-.542-1.797l-.016-.057c0-.169 0-.338-.055-.506-1.061-6.971 3.011-16.635 6.356-19.221.892-.731 2.118-.225 2.286 1.686-2.732 1.349-3.624 3.71-3.624 4.721 0 2.754 2.787 3.428 5.185 2.698Z" fill="#000"/></svg>